<mxfile host="app.diagrams.net" modified="2024-06-15T13:20:59.772Z" agent="Mozilla/5.0 (Windows NT 10.0; Win64; x64) AppleWebKit/537.36 (KHTML, like Gecko) Chrome/125.0.0.0 Safari/537.36" etag="Zsw4uiyEnK2sz68sfGJ3" version="24.4.13" type="device">
  <diagram name="Page-1" id="ZXFFQwNqc9sKqvOVqVb6">
    <mxGraphModel dx="1195" dy="650" grid="1" gridSize="10" guides="1" tooltips="1" connect="1" arrows="1" fold="1" page="1" pageScale="1" pageWidth="850" pageHeight="1100" math="0" shadow="0">
      <root>
        <mxCell id="0" />
        <mxCell id="1" parent="0" />
        <mxCell id="zQ1Ngbzoh76GPmhOXi97-10" style="edgeStyle=orthogonalEdgeStyle;rounded=0;orthogonalLoop=1;jettySize=auto;html=1;exitX=0;exitY=0.5;exitDx=0;exitDy=0;" edge="1" parent="1" source="zQ1Ngbzoh76GPmhOXi97-15" target="zQ1Ngbzoh76GPmhOXi97-9">
          <mxGeometry relative="1" as="geometry">
            <mxPoint x="370" y="150" as="sourcePoint" />
          </mxGeometry>
        </mxCell>
        <mxCell id="zQ1Ngbzoh76GPmhOXi97-3" style="edgeStyle=orthogonalEdgeStyle;rounded=0;orthogonalLoop=1;jettySize=auto;html=1;entryX=1;entryY=0.5;entryDx=0;entryDy=0;" edge="1" parent="1" source="zQ1Ngbzoh76GPmhOXi97-2" target="zQ1Ngbzoh76GPmhOXi97-15">
          <mxGeometry relative="1" as="geometry">
            <mxPoint x="465" y="150" as="targetPoint" />
          </mxGeometry>
        </mxCell>
        <mxCell id="zQ1Ngbzoh76GPmhOXi97-2" value="USER" style="shape=umlActor;verticalLabelPosition=bottom;verticalAlign=top;html=1;outlineConnect=0;" vertex="1" parent="1">
          <mxGeometry x="760" y="120" width="30" height="60" as="geometry" />
        </mxCell>
        <mxCell id="zQ1Ngbzoh76GPmhOXi97-4" value="&lt;font style=&quot;font-size: 20px;&quot;&gt;Withdraw request&lt;/font&gt;" style="text;html=1;align=center;verticalAlign=middle;whiteSpace=wrap;rounded=0;" vertex="1" parent="1">
          <mxGeometry x="540" y="100" width="140" height="90" as="geometry" />
        </mxCell>
        <mxCell id="zQ1Ngbzoh76GPmhOXi97-9" value="DB" style="shape=cylinder3;whiteSpace=wrap;html=1;boundedLbl=1;backgroundOutline=1;size=15;" vertex="1" parent="1">
          <mxGeometry x="30" y="110" width="60" height="80" as="geometry" />
        </mxCell>
        <mxCell id="zQ1Ngbzoh76GPmhOXi97-11" value="1. we save it into database" style="text;html=1;align=center;verticalAlign=middle;resizable=0;points=[];autosize=1;strokeColor=none;fillColor=none;" vertex="1" parent="1">
          <mxGeometry x="150" y="120" width="170" height="30" as="geometry" />
        </mxCell>
        <mxCell id="zQ1Ngbzoh76GPmhOXi97-20" style="edgeStyle=orthogonalEdgeStyle;rounded=0;orthogonalLoop=1;jettySize=auto;html=1;exitX=0.5;exitY=1;exitDx=0;exitDy=0;entryX=0;entryY=0.75;entryDx=0;entryDy=0;" edge="1" parent="1" source="zQ1Ngbzoh76GPmhOXi97-12" target="zQ1Ngbzoh76GPmhOXi97-14">
          <mxGeometry relative="1" as="geometry" />
        </mxCell>
        <mxCell id="zQ1Ngbzoh76GPmhOXi97-12" value="producer task&amp;nbsp;" style="ellipse;whiteSpace=wrap;html=1;aspect=fixed;" vertex="1" parent="1">
          <mxGeometry x="20" y="301.72" width="80" height="80" as="geometry" />
        </mxCell>
        <mxCell id="zQ1Ngbzoh76GPmhOXi97-14" value="" style="shape=image;verticalLabelPosition=bottom;labelBackgroundColor=default;verticalAlign=top;aspect=fixed;imageAspect=0;image=https://static-00.iconduck.com/assets.00/rabbitmq-icon-484x512-s9lfaapn.png;" vertex="1" parent="1">
          <mxGeometry x="250" y="560" width="74" height="78.28" as="geometry" />
        </mxCell>
        <mxCell id="zQ1Ngbzoh76GPmhOXi97-15" value="" style="shape=image;verticalLabelPosition=bottom;labelBackgroundColor=default;verticalAlign=top;aspect=fixed;imageAspect=0;image=https://static-00.iconduck.com/assets.00/django-icon-1606x2048-lwmw1z73.png;" vertex="1" parent="1">
          <mxGeometry x="382.5" y="105.37" width="70" height="89.26" as="geometry" />
        </mxCell>
        <mxCell id="zQ1Ngbzoh76GPmhOXi97-16" style="edgeStyle=orthogonalEdgeStyle;rounded=0;orthogonalLoop=1;jettySize=auto;html=1;exitX=0.5;exitY=0;exitDx=0;exitDy=0;entryX=0.5;entryY=1;entryDx=0;entryDy=0;entryPerimeter=0;" edge="1" parent="1" source="zQ1Ngbzoh76GPmhOXi97-12" target="zQ1Ngbzoh76GPmhOXi97-9">
          <mxGeometry relative="1" as="geometry" />
        </mxCell>
        <mxCell id="zQ1Ngbzoh76GPmhOXi97-17" value="2 check for tasks in database" style="text;html=1;align=center;verticalAlign=middle;whiteSpace=wrap;rounded=0;" vertex="1" parent="1">
          <mxGeometry x="20" y="220" width="110" height="50" as="geometry" />
        </mxCell>
        <mxCell id="zQ1Ngbzoh76GPmhOXi97-19" value="3. send the tasks into rabbitMQ" style="text;html=1;align=center;verticalAlign=middle;whiteSpace=wrap;rounded=0;" vertex="1" parent="1">
          <mxGeometry x="60" y="584.14" width="190" height="30" as="geometry" />
        </mxCell>
        <mxCell id="zQ1Ngbzoh76GPmhOXi97-31" style="edgeStyle=orthogonalEdgeStyle;rounded=0;orthogonalLoop=1;jettySize=auto;html=1;" edge="1" parent="1" source="zQ1Ngbzoh76GPmhOXi97-21" target="zQ1Ngbzoh76GPmhOXi97-30">
          <mxGeometry relative="1" as="geometry" />
        </mxCell>
        <mxCell id="zQ1Ngbzoh76GPmhOXi97-21" value="consumer task" style="ellipse;whiteSpace=wrap;html=1;aspect=fixed;" vertex="1" parent="1">
          <mxGeometry x="240" y="301.72" width="80" height="80" as="geometry" />
        </mxCell>
        <mxCell id="zQ1Ngbzoh76GPmhOXi97-22" style="edgeStyle=orthogonalEdgeStyle;rounded=0;orthogonalLoop=1;jettySize=auto;html=1;entryX=0.417;entryY=-0.053;entryDx=0;entryDy=0;entryPerimeter=0;" edge="1" parent="1" source="zQ1Ngbzoh76GPmhOXi97-21" target="zQ1Ngbzoh76GPmhOXi97-14">
          <mxGeometry relative="1" as="geometry" />
        </mxCell>
        <mxCell id="zQ1Ngbzoh76GPmhOXi97-23" value="4. rabbit did we have any new task?!" style="text;html=1;align=center;verticalAlign=middle;whiteSpace=wrap;rounded=0;" vertex="1" parent="1">
          <mxGeometry x="220" y="420" width="240" height="30" as="geometry" />
        </mxCell>
        <mxCell id="zQ1Ngbzoh76GPmhOXi97-30" value="3rd Party bank service" style="whiteSpace=wrap;html=1;aspect=fixed;" vertex="1" parent="1">
          <mxGeometry x="690" y="301.72" width="80" height="80" as="geometry" />
        </mxCell>
        <mxCell id="zQ1Ngbzoh76GPmhOXi97-33" style="edgeStyle=orthogonalEdgeStyle;rounded=0;orthogonalLoop=1;jettySize=auto;html=1;exitX=0;exitY=0.25;exitDx=0;exitDy=0;entryX=0.99;entryY=0.228;entryDx=0;entryDy=0;entryPerimeter=0;" edge="1" parent="1" source="zQ1Ngbzoh76GPmhOXi97-30" target="zQ1Ngbzoh76GPmhOXi97-21">
          <mxGeometry relative="1" as="geometry" />
        </mxCell>
        <mxCell id="zQ1Ngbzoh76GPmhOXi97-34" style="edgeStyle=orthogonalEdgeStyle;rounded=0;orthogonalLoop=1;jettySize=auto;html=1;exitX=0;exitY=0;exitDx=0;exitDy=0;entryX=1;entryY=0;entryDx=0;entryDy=52.5;entryPerimeter=0;" edge="1" parent="1" source="zQ1Ngbzoh76GPmhOXi97-21" target="zQ1Ngbzoh76GPmhOXi97-9">
          <mxGeometry relative="1" as="geometry" />
        </mxCell>
        <mxCell id="zQ1Ngbzoh76GPmhOXi97-35" value="5. processing tasks and update user bank account" style="text;html=1;align=center;verticalAlign=middle;resizable=0;points=[];autosize=1;strokeColor=none;fillColor=none;" vertex="1" parent="1">
          <mxGeometry x="195" y="260" width="290" height="30" as="geometry" />
        </mxCell>
      </root>
    </mxGraphModel>
  </diagram>
</mxfile>
